<?xml version="1.0" encoding="UTF-8"?>
<svg id="_圖層_1" data-name="圖層 1" xmlns="http://www.w3.org/2000/svg" viewBox="0 0 1280 800">
  <defs>
    <style>
      .cls-1 {
        fill: #fff;
      }
    </style>
  </defs>
  <path class="cls-1" d="M1026.68,332.82c7.51-1.43,8.82,8.97,1.48,9.67-6.44.62-7.6-8.51-1.48-9.67Z"/>
  <g>
    <path class="cls-1" d="M363.3,355.93c1.91.12,6.4.31,7.95-.18,2.54-.79,0-3.22,1.35-4.83,1.82-2.17,8.37-2.47,10.44-3.99.15-.11.23-.28.25-.46,1.48-9.62,25.23-10.46,34.57-14.9.53-.25,1.11.2,1.02.78-5.08,33.09.27,87.13,45.33,84.57,37.64-2.14,63.83-40.33,73.62-73.07,1.11-3.01,5.42-19.05,6.25-19.67.46-.34,1.24-.37,1.94-.42.38-.03.68-.34.68-.72l.03-1.97h-.09v-.3h-30.85c-.41,0-.73.33-.73.73v1.07c0,.41.33.73.73.73h.27c.19,0,.38.07.51.2,1.34,1.3,1.91,3.27,1.36,5.13-23.11,78.49-96.95,109.59-76.14-3.48.05-.3.28-.53.58-.59,20.06-4.07,88.42-32.71,108.12-25.13.23.09.39.29.45.52l2.1,8.95c.02.09.02.17.01.26l-9.87,76.17,32.46-38.98c.15-.18.38-.29.62-.27,2.79.25,4.67,8.89,5.2,11.88.06.35.37.6.72.6h1.34c.39,0,.71-.31.73-.7.25-4.62,1.66-8.9,5.67-11.52.18-.12.42-.15.62-.09,8.43,2.53,6.33,14.1,5.38,21.42-.08.65.69,1.1,1.18.67,1.83-1.6,4.12-8.57,5.04-11.35.18-.55.89-.68,1.26-.24,4.3,5.05,10.48,23.39,12.95,21.44-.42-26.69-1.69-53.55-9.22-79.25-.19-.66.54-1.2,1.11-.82l11.47,7.75c.2.14.32.36.32.61v68.77c0,.41-.33.73-.73.73h-.47c-.41,0-.73.33-.73.73v3.93h32.68v-3.93c0-.41-.33-.73-.73-.73h-2.72c-.39,0-.72-.31-.74-.7-1.5-35.24-.75-70.56-1.88-105.85v-19.76c.06,0,.13,0,.2,0l39.77,113.36c.03.08.04.16.04.24v11.96c0,.41-.33.73-.73.73h-2.92c-.41,0-.73.33-.73.73v3.26h35.09v-3.26c0-.41-.33-.73-.73-.73h-4.35c-.11-.25-.21-.54-.28-.91-.1-14.58-.37-29.3-.67-44.06v-94.83c0-.41.33-.73.73-.73h4.56c.41,0,.73-.33.73-.73v-3.24c0-.41-.33-.73-.73-.73,0,0-5.3,0-5.3-.02,0,0-24.67,0-24.67.02h-6.17c-.41,0-.73.33-.73.73v3.24c0,.41.33.73.73.73h5.43c.41,0,.73.33.73.73v109.41c0,.83-1.16,1.02-1.43.23l-36.98-109.41c-.16-.48.19-.97.7-.97h4.34c.41,0,.73-.33.73-.73v-3.24c0-.41-.33-.73-.73-.73h-37.96c-.41,0-.73.33-.73.73v3.24c0,.41.33.73.73.73h5.83c.4,0,.73.32.73.72.02,2.27.05,4.54.09,6.81v58.81c0,.62-.71.95-1.2.57-17.39-13.54-25.09-46.32-28.35-66.54-1.19-4.5,1.93-30.02-5.28-26.85-.08.03-.16.08-.22.14-1.95,1.94,1.1,16.95,1.06,20.44-.03,2.68-1.18,11.57-3.31,12.83-28.39,13.48-62.93-62.14-87.26-67.19-.29-.06-.59.07-.75.32l-1.37,2.07c-.12.19-.16.42-.09.64l.72,2.17c.04.11.09.2.17.29,10.99,11.31,26.9,21.53,35.84,34.43,8.67,12.51,18.28,29.9,23.58,44.14.02.05.05.1.08.14,5.89,8.43-14.77,14.79-17.3,17.96-.09.11-.13.26-.13.4-.39,10.37.22,9.93-9.28,15.78-.06.04-.13.07-.2.08-3.01.81-71.77,19.33-81.12,21.84-.5.14-.99-.28-.92-.8,2.26-17.34,13.66-36.99,23.38-51.87.11-.17.27-.29.47-.32,3.77-.67,27.29,6.27,32.51,6.65,1.64.12,2.62.54,3.74-1.16.5-1.88-3.05-1.74-4.28-1.95-9.65-1.63-19.02-4.27-28.72-5.52-.48-.06-.77-.55-.59-1,5.36-13.29,36.11-38.28,44.47-15.78,4.14,10.4,2.87,21.88-1.89,31.75-.07.14-.17.25-.3.32l-1.68.97c-.35.2-.47.65-.27,1l.61,1.06c.2.35.65.47,1,.27l31.5-18.19c.35-.2.47-.65.27-1l-.98-1.7-.86.49c-16.31-44.47-61.65-33.37-87.69-3.71-.06.06-.13.12-.2.16-1.51.85-2.71.85-3.95.61-.79-.15-.8-1.29,0-1.44.5-.1.74-.66.49-1.1-3.22-5.68-16.04-1.23-18.21-7.99-.08-.26-.29-.46-.55-.52l-59.17-12.6c-1.97-.2-.58-2.7-1.21-3.7-1.5-2.36-26.35-5.83-29.34-4.18-1.43,1.04-.43,1.35.43,2.28,20.37,10.74,51.6,8.93,72.06,17.19.88.33,6.3,3.78,6.5,4.16.41.76-.58,2.16-.33,3.03.91,3.15,23.54,4.92,28.72,8.54.36.25.43.74.15,1.07-14.68,17.74-23.56,39.23-30.12,61.16-.07.24-.27.43-.51.5-46.17,12.03-91.47,27.68-138.46,36.42.32,7.39,34.7-.57,41.94,1.78l-20.54,13.81.48,2.25c19.37-6.61,38.86-21.76,59.72-20.49ZM571.04,265.34c5.74,2.81,2.11,4.45,12.2,4.02.49-.02.86.44.74.92-2.82,11.52,1.84,22.57,10.02,30.7.4.4.23,1.07-.31,1.23-9.74,2.87-2.21,10.37,1.35,16.47.33.56-.17,1.24-.8,1.09-6.16-1.46-6.72-.31-9.79,4.17-.35.52-1.18.39-1.32-.22-1-4.31-5.28-6.46-9.59-4.84-.46.17-.96-.14-.99-.63-.36-6.43.81-13.77.07-19.94-.88-7.36-4.13-16.28-9.53-21.66-.42-.42-.2-1.12.38-1.23,4.22-.84,6.44-5.18,6.51-9.43,0-.53.57-.88,1.05-.65ZM474.46,311.27l-30.43,9.29c-.82.25-1.34-.88-.61-1.32,5.57-3.32,28.12-7.06,31.04-7.97ZM303.11,357.66l115.73-31.79c.53-.15,1.03.33.91.87l-.23,1.05c-.06.27-.27.49-.54.55-9.6,2.29-18.9,5.67-28.38,8.39-4.11,1.18-29.42,6.02-29.47,9.78,5.05,3.59,12.15-2.65,17.98-3.1.52-.04.96.46.78.95-.98,2.6-11.46,2.17-10.87,8.26.03.35-.2.69-.55.77-2.57.62-2.76-1.87-4.19-2.05-9.21-1.17-27.65,8.39-36.67,11.66l2.25-5.32c-1.36-2.01-22.88,1.11-26.77-.02Z"/>
    <path class="cls-1" d="M1059.7,387.8c-2.07-5.21-5.87-5.15-8.7-8.25-.67-.74-6-9.45-6.1-10.03-.57-3.57,4.47-6.88,5.04-10.74-2.22-19.48-32.65-8.24-16.26,12.21,1.15,1.53,7.55,6.81,6.61,8.1-8.32.65-12.13,6.58-17.87,11.38l-34.09,83.3c-.25.62-1.13.61-1.36-.02l-29.8-78.02h5.36v-4.7h-51.93v4.7h7.33c15.47,39.9,33.59,78.83,47.27,119.39.04.11.05.23.03.34-3.88,28.25-20.01,56.5-49.04,64.85-13.35,3.14-27.97-.89-39.72-7.34-6.29-3.45-12.34-7.86-17.05-13.32-8.1-9.38-13.52-19.51-28.06-14.95-13.72,4.3-16.67,18.53-6.79,28.58.03.03.07.07.11.1,124.38,88.5,152.5-73.92,194.69-155.85,6.05-8.26,13.66-3.55,22.26-4.52,12.33-1.39,23.2-12.26,18.06-25.21Z"/>
    <path class="cls-1" d="M728.09,375.64h-5.64c-.41,0-.73.33-.73.73v1.8c-.05.27-.07.56-.02.91,0,0,.01,0,.02,0v.9h13.24c9.61.63,20.21,1.11,27.36.01,2.23-.41,1.72-2.53,3.92-3.2,14.02-2.56,19.05-.17,27.58-14.16.06-.09.13-.17.22-.23,4.73-3.2,10.34-4.43,14.01-10.3.17-.27.5-.41.81-.33,1.34.37,3.34,2.64,4.59-1.01.26-.77.45-1.82.1-2.59-.06-.13-.16-.22-.28-.3l-1.75-1.06c-.27-.16-.41-.49-.34-.79,2.3-9.8,13.2-8.91,16.47-19.41,3.6-11.57-2.99-17.71-4.88-27.56,0-.04-.01-.09-.01-.13-.44-15.97-5-22.73-11.52-35.65-.01-.03-.03-.06-.04-.08-2.03-5.36-.39-7.56-4.73-13.06-6.28-7.93-9.72-5.52-17.74-8.03-.05-.02-.11-.04-.16-.07-15.43-9.22-32.37-11.11-49.67-11.3h0s-.16,0-.16,0c-2.17-.02-4.35-.02-6.53,0h-13.19c-.41,0-.73.33-.73.73v3.24c0,.41.33.73.73.73h8.2c.4,0,.73.33.73.73l.87,138.73c0,.41-.33.74-.73.74ZM767.93,239.76c-1.51,22.65,8.81,14.25,10.03,29.96,0,.04,0,.07,0,.11-.55,12.51-10.52,6.7-11.64,14.28-1.34,9.05,10.62,13.43,14.66,6.57,2.94-4.99-1.49-13.68,8.74-12.25,7.56,1.06,15.78,10.76,16.67,18.18.8,6.71-3.33,12.32-3.56,18.65-.27,7.32,4.68,10.09-2.36,16.49-.03.03-.07.06-.11.09-17.78,11.33-13.59,4.17-23.31,23.38-.06.11-.14.22-.24.29-4.2,2.85-17.34-1.82-23.69,2.21-.48.3-1.11-.04-1.11-.61l-1.76-119.95c0-.46.4-.81.85-.74l16.21,2.56c.38.06.64.4.62.78Z"/>
    <path class="cls-1" d="M855.31,355.54c.02.07.03.15.03.23-.8,28.76-50.22,75.7-79.51,54.42-10.72-6.57-12.25-21.74-28.5-18.39-8.67,1.78-13.72,14.34-8.68,21.66,10.96,15.91,43.19,15.65,59.6,10.51,81.15-23.59,75.01-153.68,121.56-172.07,7.37-1.68,11.05,4.99,21.78.36,11.78-5.08,15.54-21.78,6.49-30.84-11.7-11.71-31.71-1.5-39.37,10.04-5.44,8.2-8.17,19.32-11.73,28.44-4.79,12.28-9.59,24.56-14.38,36.84-1.2,3.08-8.55,15.72-7.41,18.97l-28.45-80.87.48-.24h4.16c.41,0,.73-.33.73-.73v-3.24c0-.41-.33-.73-.73-.73h-44.64c-.41,0-.73.33-.73.73v3.24c0,.41.33.73.73.73h4.78c.32,0,.61.21.7.52,12.03,39.99,32.46,80.13,43.1,120.41Z"/>
    <path class="cls-1" d="M721.18,436.33c.13-4.33-3.39-5.8,2.27-8.6-11.63-8.13-8.04-22.58-11.49-34.74-.84-1.24-16.5,1.63-19.17,2.28-7.46,2.18-17.3,8.28-22.9.32-4.91-2.3-22.09,13.1-26.84,7.23-1.81-2.24,1.12-8.81.09-12.13l-29.45-.88,6.26,11.59,1.78-.45-.9-6.68,8.3.86,3.87,15.28c17.78,5.5,32.64-6.86,7.37,13.65-8.03,5.57-18.6,9.31-26.59,14.46-6.98,4.5,3.93,6.65,7.5,9.29,4.43,3.28,19.3,21.49,19.82,26.43.29,2.72-1.48,7.5-1.56,10.58-.14,5.13,3.22,11.44-2.68,14.26-5.1,2.43-9.51.81-14.28-.57-.72-.21-1.26.68-.73,1.22,16.16,16.48,25.2,28.88,8.79,33.11-.06.02-.13.02-.19.02h-18.7c-.41,0-.73.33-.73.73v5.38c0,.41.33.73.73.73h.6v.03h78.1v-.03h0v-6.12c0-.41-.33-.73-.73-.73h-3.3c-.31,0-.58-.2-.69-.5-.96-2.54-3.16-4.34-4.72-7.05-.15-.27-.11-.61.09-.85,11.46-13.44-2.59-14.02-11.47-19.69-5.45-3.49-14.25-11.57-12.03-18.85.53-1.72,3.75-3.35,4.24-5.77.07-.35-.14-.69-.47-.83-8.34-3.33-7.2-11.82-5.1-19.24.1-.34-.07-.69-.38-.85-33.07-16.7-12.3-26.32,13.51-20.46,5.98-10.64,19.77-13.71,30.84-16.47,10.68,12.56-5.93,17.97-7.12,30.42-.79,8.29,2.65,14.24,2.56,22.06,0,.34-.24.63-.57.71l-6.47,1.5c-.14.03-.29.02-.43-.03l-10.95-4.17c-.55-.21-1.13.28-.98.86,1.62,6.32,15.98,16.4,19.56,19.24,2.9,1.09,6.4-2.17,7.84-4.61,6.26-10.64-4.28-23.07.58-34.22,3.18-7.29,16.57-7.08,16.9-17.73Z"/>
    <path class="cls-1" d="M393.77,458.3h47.88c.41,0,.73-.33.73-.73v-6.12h-.03s-.02-.06-.03-.07h-47.3l15.26-54.35,4.38-.09c-.52-5.81-2.09-6.74-7.55-7.17-28.35-2.21-88.92.31-85.3,41.57,1.07,12.24,14.24,20.54,24.59,12.02,14.93-16.81-5.53-42.66,32.56-44.63l-12.91,41.82c-.35,4.24,4.03,9.91,2.94,13.75-.83,2.93-4.84,3.28-6.95,4.71-8.47,5.73,1.38,11.51-1.08,18.56-.93,2.66-8.6,2.81-9.48,7.52-1.4,7.44,9.9,15.55-3.78,18.99-.19.05-.36.17-.47.34-4.58,7.73-5.97,17.8-9.12,26.5-.11.29-.39.49-.7.49h-8.59c-.41,0-.73.33-.73.73v3.6c-.11.21-.11.4,0,.57v1.22c0,.41.33.73.73.73h47.67c.41,0,.73-.33.73-.73v-5.38c0-.41-.33-.73-.73-.73h-3.42c-.49,0-.84-.47-.7-.94,1.58-5.16-.72-10.77-.14-15.29.44-3.42,7.37-6.34,7.57-11.66.15-4-4.92-10.7-.81-14.17,2.19-1.86,5.02-.89,6.91-4.72,2.69-5.46-3.21-10.03-2.34-14.73.61-3.31,7.97-6.42,9.51-11.06.1-.3.37-.52.69-.52Z"/>
    <path class="cls-1" d="M623.03,472.81c.14-.15.33-.23.53-.23h.83v-1.8c0-.41-.33-.73-.73-.73h-40.8c-.41,0-.73.33-.73.73v1.07c0,.41.33.73.73.73h.1c.29,0,.55.17.67.43.71,1.57,1.29,4.56,1.29,4.64.14,2.38-2.11,5.43-3.2,7.41-16.09,29.3-46.14,13.68-43.08-15.74,1.65-15.9,7.93-33.01,16.67-46.42,21.11-34.73,49.69-8.1,31.61,10.2l2.19,1.29,29.91-16.5c2.93-2.64-1.68-2.61-2.41-3.32-7.79-29.34-41.22-29.8-61.76-12.66-84.09,75.55,8.37,214.06,65.5,73.71.03-.08.07-.15.13-.21.63-.71,1.65-1.65,2.55-2.59Z"/>
    <path class="cls-1" d="M529.32,532.85h-15.48c-.39,0-.71-.3-.73-.69l-7.14-117.39c-4.71,4.37-10.84,8.24-17.97,11.1l2.49,53.86c.02.42-.31.77-.73.77h-21.29c-.5,0-.86-.49-.7-.97l17.85-52.75c-.67.24-1.35.47-2.03.69-8.09,2.63-16.09,3.59-23.18,3.09l-35.29,101.79c-.1.3-.38.49-.69.49h-13.3c-.41,0-.73.33-.73.73v5.38c0,.41.33.73.73.73h47.67c.41,0,.73-.33.73-.73v-5.38c0-.41-.33-.73-.73-.73h-8.78c-.51,0-.86-.5-.69-.98l15.49-44.02c.1-.29.38-.49.69-.49h24.47c.38,0,.7.3.73.68l3.24,44.02c.03.43-.31.79-.73.79h-11.56c-.41,0-.73.33-.73.73v5.38c0,.41.33.73.73.73h47.67c.41,0,.73-.33.73-.73v-5.38c0-.41-.33-.73-.73-.73Z"/>
    <path class="cls-1" d="M793.98,405.85c-.79-5.28-20.02-16.61-23.2-14.26,4.66,7.75,13.63,15.25,23.2,14.26Z"/>
    <path class="cls-1" d="M485.61,172.92c2.19-.49,1.75-5.93-.87-5.35-2.19.49-1.75,5.93.87,5.35Z"/>
    <path class="cls-1" d="M761.1,298.23c-.13.02-.26.07-.36.17-1.3,1.23-.69,5.29.42,6.4,6.57,6.57,13.2-8.99-.07-6.57Z"/>
    <path class="cls-1" d="M929.43,304.92c-20.28-1.81-37.21,15.11-35.4,35.4,1.38,15.55,13.91,28.07,29.45,29.46,20.29,1.81,37.21-15.11,35.4-35.4-1.39-15.55-13.91-28.07-29.46-29.46ZM929.64,366.46c-18.64,1.98-34.27-13.66-32.3-32.3,1.44-13.58,12.36-24.5,25.94-25.93,18.64-1.97,34.27,13.66,32.29,32.29-1.44,13.58-12.36,24.5-25.93,25.94Z"/>
    <path class="cls-1" d="M912.1,334.39c1.91.36,3.56-1.28,3.2-3.2-.2-1.06-1.07-1.93-2.14-2.14-1.91-.36-3.56,1.28-3.2,3.2.2,1.06,1.07,1.93,2.14,2.14Z"/>
    <circle class="cls-1" cx="940.38" cy="331.73" r="2.72"/>
    <path class="cls-1" d="M926.46,353.3c-7.84,0-14.21-6.37-14.21-14.21h-3.28c0,9.64,7.84,17.49,17.49,17.49s17.49-7.84,17.49-17.49h-3.28c0,7.84-6.37,14.21-14.21,14.21Z"/>
    <path class="cls-1" d="M762.73,315c.05-3.53-5.49-3.53-5.44,0-.05,3.53,5.49,3.53,5.44,0Z"/>
    <path class="cls-1" d="M825.85,533.59c0-.41-.33-.73-.73-.73h-.5l16.88-66.68c.09-.35.43-.6.79-.56,26.39,2.82,30.25,50.41,10.75,67.06-.14.12-.31.18-.49.18h-15.26c-.41,0-.73.33-.73.73v5.38c0,.41.33.73.73.73h99.65c.41,0,.73-.33.73-.73v-5.38c0-.41-.33-.73-.73-.73h-30.38c-.17,0-.33-.05-.46-.16-19.07-14.76-20.16-55.94-52.67-73.02-.48-.25-.55-.93-.1-1.23.56-.38,1.5-.52,2-.6,70.27-5.72,84.85-73.6,1.55-66.28-5.34.62-9.34,8.29-12.95,12.08-7.57,7.96-15.76,15.17-24.46,21.91l-26.39,106.74c-.08.33-.37.56-.71.56h-13.36c-.41,0-.73.33-.73.73v5.38c0,.41.33.73.73.73h46.11c.41,0,.73-.33.73-.73v-5.38ZM856.88,399.6c51.99-4.33,33.73,44.3-10.25,43.74l10.25-43.74Z"/>
    <path class="cls-1" d="M783.32,437.3c-.6,15.87-3.71,31.93-10,46.53-4.63,10.74-22.67,44.37-36.03,25.65-.02-.03-.04-.06-.06-.09-10.66-18.67.62-59.85,11.54-78.44-4.44-1.67-8.42-3.59-11.79-5.69-63,124.3,48.14,173.94,61.49,15.9.04-.98.21-3.14,0-4.88-4.62.75-9.73,1.11-15.15,1.02Z"/>
  </g>
</svg>